<!-- icon666.com - MILLIONS vector ICONS FREE --><svg id="Capa_1" enable-background="new 0 0 512 512" viewBox="0 0 512 512" xmlns="http://www.w3.org/2000/svg"><g><g><g><g><g><g><g><circle cx="256" cy="256" fill="#4a98f7" r="256"></circle></g></g></g></g></g></g><path d="m512 256c0-13.181-.997-26.129-2.917-38.774l-129.31-129.309-327.468 289.141 121.441 121.441c25.815 8.754 53.48 13.501 82.254 13.501 141.385 0 256-114.615 256-256z" fill="#2864f0"></path><g><path d="m459.695 377.058h-61.9v-82.751h61.9l-20.001 41.702z" fill="#ff9500"></path></g><g><path d="m132.227 87.917h124.501v241.103h-124.501z" fill="#fff"></path></g><g><path d="m255.644 87.917h124.129v241.103h-124.129z" fill="#e9edf5"></path></g><g><path d="m207.128 230.431v-72.019l-18.046 18.206-15.789-16.595 37.54-37.057h24.007v107.465z" fill="#636978"></path><path d="m248.537 176.779c0 12.107 2.683 24 8.19 33.664v-67.265c-5.507 9.631-8.19 21.494-8.19 33.601z" fill="#636978"></path><path d="m294.616 121.354c-18.915 0-31.747 9.817-38.972 23.813v63.279c7.225 14.042 20.058 23.918 38.972 23.918 31.418 0 46.08-27.229 46.08-55.585s-14.662-55.425-46.08-55.425zm0 86.521c-12.89 0-18.045-12.084-18.045-31.096s5.155-30.935 18.045-30.935 18.045 11.923 18.045 30.935-5.155 31.096-18.045 31.096z" fill="#414952"></path></g><g><path d="m397.795 377.058 18.494-27.366-14.584-11.077-3.91 9.122z" fill="#fa5d0f"></path></g><g><path d="m52.305 377.058h61.9v-82.751h-61.9l20.001 41.702z" fill="#ffb600"></path></g><g><path d="m114.205 377.058-18.494-27.366 14.584-11.077 3.91 9.122z" fill="#fe8205"></path></g><g><path d="m95.711 258.47h161.017v91.222h-161.017z" fill="#ffce00"></path></g><g><path d="m255.644 258.47h160.645v91.222h-160.645z" fill="#fdba12"></path></g><g><g fill="#636978"><path d="m158.911 334.595v-24.705l-23.236-36.553h17.818l13.316 22.593 13.134-22.593h17.909l-23.145 36.553v24.706h-15.796z"></path><path d="m202.356 334.595v-61.259h44.911v13.776h-29.114v9.552h28.471v13.776h-28.471v10.378h29.114v13.776h-44.911z"></path><path d="m249.933 334.595h6.795v-18.056z"></path></g><path d="m292.823 273.336h-19.838l-17.341 46.082v15.177h12.199l3.03-8.817h24.154l3.031 8.817h17.909zm-17.725 38.666 7.807-23.052 7.807 23.052z" fill="#414952"></path><path d="m354.636 334.595-10.286-20.573h-8.082v20.573h-15.797v-61.259h30.675c13.593 0 21.308 9 21.308 20.389 0 10.654-6.521 16.348-12.215 18.368l12.49 22.501h-18.093zm1.745-40.962c0-4.133-3.49-6.521-7.623-6.521h-12.49v13.134h12.49c4.133 0 7.623-2.296 7.623-6.613z" fill="#414952"></path></g></g></svg>