<!-- icon666.com - MILLIONS vector ICONS FREE --><svg id="Capa_1" enable-background="new 0 0 512 512" viewBox="0 0 512 512" xmlns="http://www.w3.org/2000/svg"><path d="m492 360.443h-472c-11.046 0-20-8.954-20-20v-293.008c0-11.046 8.954-20 20-20h472c11.046 0 20 8.954 20 20v293.008c0 11.046-8.954 20-20 20z" fill="#97e4f9"></path><path d="m131.122 360.443h249.756v-101.984c0-11.495-9.318-20.813-20.813-20.813h-208.13c-11.495 0-20.813 9.318-20.813 20.813z" fill="#0acefa"></path><path d="m492 27.435h-35.467c15.709 0 28.444 12.735 28.444 28.444v276.119c0 15.709-12.735 28.444-28.444 28.444h35.467c11.046 0 20-8.954 20-20v-293.007c0-11.046-8.954-20-20-20z" fill="#0acefa"></path><path d="m42.667 126.54v-50.439c0-3.314 2.686-6 6-6h81.659c3.314 0 6 2.686 6 6v50.439c0 3.314-2.686 6-6 6h-81.659c-3.314 0-6-2.686-6-6z" fill="#fce25c"></path><g fill="#818181"><path d="m48.848 213.711h70.89c3.414 0 6.181-2.767 6.181-6.181v-18.857c0-3.414-2.767-6.181-6.181-6.181h-70.89c-3.414 0-6.181 2.767-6.181 6.181v18.857c0 3.414 2.767 6.181 6.181 6.181z"></path><path d="m163.319 213.711h70.89c3.414 0 6.181-2.767 6.181-6.181v-18.857c0-3.414-2.767-6.181-6.181-6.181h-70.89c-3.414 0-6.181 2.767-6.181 6.181v18.857c0 3.414 2.768 6.181 6.181 6.181z"></path><path d="m277.791 213.711h70.89c3.414 0 6.181-2.767 6.181-6.181v-18.857c0-3.414-2.767-6.181-6.181-6.181h-70.89c-3.414 0-6.181 2.767-6.181 6.181v18.857c0 3.414 2.767 6.181 6.181 6.181z"></path><path d="m392.262 213.711h70.89c3.414 0 6.181-2.767 6.181-6.181v-18.857c0-3.414-2.767-6.181-6.181-6.181h-70.89c-3.414 0-6.181 2.767-6.181 6.181v18.857c0 3.414 2.768 6.181 6.181 6.181z"></path></g><circle cx="438.114" cy="101.321" fill="#fce25c" r="31.22"></circle><circle cx="392.325" cy="101.321" fill="#fb636f" r="31.22"></circle><path d="m259.743 483.861 47.319-18.454c31.96-12.465 53.003-43.257 53.003-77.562v-119.084c0-5.69-4.612-10.302-10.302-10.302h-187.526c-5.69 0-10.302 4.612-10.302 10.302v119.084c0 34.305 21.042 65.098 53.003 77.562l47.319 18.454c2.407.939 5.079.939 7.486 0z" fill="#7fd061"></path><path d="m328.846 258.459v129.385c0 34.305-21.042 65.098-53.003 77.562l-35.452 13.826 11.867 4.628c2.407.939 5.079.939 7.486 0l47.319-18.455c31.96-12.465 53.003-43.257 53.003-77.562v-119.082c0-5.69-4.612-10.302-10.302-10.302z" fill="#51be26"></path><path d="m216.282 436.321c-20.124-7.849-33.127-26.877-33.127-48.477v-87.864c0-5.69 4.612-10.302 10.302-10.302h125.087c5.69 0 10.302 4.612 10.302 10.302v87.864c0 21.6-13.003 40.628-33.127 48.477l-35.975 14.03c-2.407.939-5.079.939-7.486 0z" fill="#eaeaea"></path><path d="m299.965 347.748-16.242-16.242c-1.609-1.609-4.218-1.609-5.828 0l-27.251 27.251c-1.609 1.609-4.218 1.609-5.828 0l-10.712-10.712c-1.609-1.609-4.218-1.609-5.828 0l-16.248 16.248c-1.609 1.609-1.609 4.218 0 5.828l32.682 32.682c1.607 1.607 4.212 1.61 5.822.006l49.426-49.228c1.616-1.608 1.619-4.222.007-5.833z" fill="#fce25c"></path><path d="m469.333 294.283h-52.032c-4.268 0-7.726-3.459-7.726-7.726s3.459-7.726 7.726-7.726h52.032c4.268 0 7.726 3.459 7.726 7.726s-3.458 7.726-7.726 7.726z" fill="#818181"></path><path d="m469.333 325.503h-52.032c-4.268 0-7.726-3.459-7.726-7.726s3.459-7.726 7.726-7.726h52.032c4.268 0 7.726 3.459 7.726 7.726s-3.458 7.726-7.726 7.726z" fill="#818181"></path></svg>