<!-- icon666.com - MILLIONS vector ICONS FREE --><svg id="Flat" viewBox="0 0 512 512" xmlns="http://www.w3.org/2000/svg"><path d="m256 488s-184-24-184-368l184-96 184 96c0 344-184 368-184 368z" fill="#2978b8"></path><path d="m256 456s-152-40-152-320l152-80 152 80c0 280-152 320-152 320z" fill="#3397e8"></path><path d="m256 392c-48.601 0-88-39.399-88-88v-56c0-8.837 7.163-16 16-16h144c8.837 0 16 7.163 16 16v56c0 48.601-39.399 88-88 88z" fill="#ffd33a"></path><path d="m184 192v40h32v-40c0-22.091 17.909-40 40-40 22.091 0 40 17.909 40 40v40h32v-40c0-39.764-32.236-72-72-72-39.764 0-72 32.236-72 72z" fill="#e9eef2"></path><path d="m280 288c0-13.761-11.581-24.817-25.529-23.953-12.014.745-21.766 10.567-22.433 22.585-.425 7.652 2.741 14.577 7.962 19.251v22.117c0 8.837 7.163 16 16 16 8.837 0 16-7.163 16-16v-22.116c4.909-4.394 8-10.777 8-17.884z" fill="#ffb632"></path></svg>